PathFileType	4	(X/Y/Z)	C:\Users\u0088756\Documents\documenten\software\SoftwareProjects\DC_TrackingSimulation\Data\Patient2\InputData\MarkerFile_DataSel.trc
DataRate	CameraRate	NumFrames	NumMarkers	Units	OrigDataRate	OrigDataStartFrame	OrigNumFrames
200.000000	200.000000	7	45	m	200.000000	1	257
Frame#	Times		CLAV		LSHO		LUA1		LELB		LLA1		LWRA		LWRB		LFIN		RSHO		RUA1		RELB		RLA1		RWRA		RWRB		RFIN		LASI		RASI		RPSI		LPSI		LTHI3		LKNE		LKNEmed		LTIB		LTIB2		LTIB3		LANK		LANKmed		LHEE		LTOE		LLatFoot		RTHI		RTHI2		RTHI3		RKNE		RTIB		RTIB2		RTIB3		RANK		RANKmed		RHEE		RTOE		RLatFoot		Unlabeled51		Unlabeled52		*52
			X1	Y1	Z1	X2	Y2	Z2	X3	Y3	Z3	X4	Y4	Z4	X5	Y5	Z5	X6	Y6	Z6	X7	Y7	Z7	X8	Y8	Z8	X9	Y9	Z9	X10	Y10	Z10	X11	Y11	Z11	X12	Y12	Z12	X13	Y13	Z13	X14	Y14	Z14	X15	Y15	Z15	X16	Y16	Z16	X17	Y17	Z17	X18	Y18	Z18	X19	Y19	Z19	X20	Y20	Z20	X21	Y21	Z21	X22	Y22	Z22	X23	Y23	Z23	X24	Y24	Z24	X25	Y25	Z25	X26	Y26	Z26	X27	Y27	Z27	X28	Y28	Z28	X29	Y29	Z29	X30	Y30	Z30	X31	Y31	Z31	X32	Y32	Z32	X33	Y33	Z33	X34	Y34	Z34	X35	Y35	Z35	X36	Y36	Z36	X37	Y37	Z37	X38	Y38	Z38	X39	Y39	Z39	X40	Y40	Z40	X41	Y41	Z41	X42	Y42	Z42	X43	Y43	Z43	X44	Y44	Z44	X45	Y45	Z45

1	0	0.36226	1.4287	0.0065243	0.24792	1.4414	-0.2018	0.24672	1.194	-0.23969	0.20251	1.0999	-0.24062	0.2494	0.97414	-0.28919	0.28639	0.83448	-0.26305	0.21656	0.83787	-0.30282	0.26412	0.77636	-0.3236	0.29124	1.4709	0.22513	0.35694	1.2332	0.29065	0.38064	1.1233	0.3017	0.49343	1.0422	0.28477	0.57539	0.95774	0.19992	0.54745	0.91428	0.26211	0.612	0.91843	0.24265	0.38317	0.94704	-0.078624	0.37532	0.94794	0.16373	0.13874	0.99204	0.060477	0.13642	0.99524	-0.0077371	0.37765	0.65506	-0.18417	0.46038	0.48018	-0.13781	0.46829	0.47376	-0.01564	0.52872	0.30643	-0.16097	0.47805	0.27795	-0.16092	0.5285	0.25074	-0.16084	0.58601	0.082116	-0.12874	0.62569	0.1209	-0.044656	0.55496	0.012985	-0.053774	0.76077	0.11765	-0.11839	0.68498	0.03499	-0.16291	0.28525	0.69085	0.21539	0.22362	0.68633	0.21909	0.25417	0.64869	0.21228	0.18842	0.45804	0.16341	0.12969	0.26244	0.17269	0.076954	0.27619	0.17575	0.092546	0.22302	0.16922	0.048284	0.065236	0.12847	0.073149	0.078286	0.036051	-0.029435	0.01714	0.073384	0.20713	0.023774	0.080553	0.12685	-0.011109	0.15683	-0.85229	-0.026009	-0.67965	-0.9382	-0.031072	0.67254	0.21675	1.5942	0.066553
2	0.005	0.36739	1.4281	0.0058181	0.25337	1.4406	-0.20264	0.25309	1.1932	-0.2403	0.20896	1.0989	-0.24136	0.25634	0.97314	-0.2894	0.29321	0.83363	-0.26278	0.22372	0.83691	-0.30317	0.2714	0.77516	-0.3232	0.29601	1.4703	0.22425	0.36085	1.2323	0.29007	0.38424	1.1223	0.30107	0.49654	1.0405	0.28433	0.57808	0.95544	0.19963	0.5498	0.91216	0.26179	0.6144	0.91602	0.24244	0.38812	0.94654	-0.079197	0.38032	0.94714	0.16315	0.14378	0.99154	0.059917	0.14142	0.99484	-0.0082673	0.38531	0.65585	-0.18455	0.46654	0.47987	-0.13794	0.4754	0.47356	-0.016175	0.53302	0.30503	-0.1608	0.48216	0.27717	-0.16057	0.53216	0.24936	-0.16039	0.58748	0.081576	-0.12844	0.62832	0.11911	-0.044034	0.5556	0.013459	-0.053412	0.76326	0.11398	-0.11748	0.68573	0.033145	-0.16268	0.2899	0.69012	0.2148	0.22842	0.68554	0.21878	0.25883	0.64797	0.21168	0.19238	0.45747	0.163	0.13212	0.26239	0.17246	0.079492	0.27653	0.1757	0.094106	0.22328	0.16921	0.048683	0.065786	0.12862	0.073507	0.078666	0.036111	-0.029525	0.017569	0.073593	0.20718	0.023601	0.080684	0.12666	-0.011164	0.15693	-0.8475	-0.025976	-0.67971	-0.93348	-0.03107	0.67264	0.22177	1.5934	0.06587
3	0.01	0.37258	1.4275	0.0050953	0.25886	1.44	-0.20352	0.2594	1.1923	-0.24088	0.21534	1.098	-0.24213	0.26331	0.97224	-0.28965	0.30013	0.83277	-0.26253	0.23098	0.83588	-0.30344	0.27875	0.77402	-0.32281	0.3009	1.4698	0.22335	0.3647	1.2314	0.28941	0.38779	1.1214	0.30039	0.49959	1.0389	0.28387	0.5806	0.95314	0.19933	0.55203	0.91003	0.26146	0.61666	0.91354	0.24226	0.39309	0.94604	-0.079841	0.38524	0.94644	0.16259	0.14924	0.99104	0.059706	0.1464	0.99444	-0.0087584	0.39302	0.6566	-0.18489	0.47281	0.47961	-0.13804	0.48238	0.47328	-0.01667	0.53722	0.30362	-0.16054	0.4862	0.2764	-0.16021	0.53554	0.24794	-0.15989	0.58845	0.081266	-0.12791	0.63055	0.11722	-0.043259	0.55606	0.013641	-0.053059	0.76556	0.11002	-0.11664	0.6863	0.031025	-0.1624	0.29461	0.68938	0.21415	0.23321	0.68467	0.21867	0.26348	0.6473	0.21114	0.19655	0.45686	0.16256	0.13457	0.26233	0.17219	0.082061	0.27696	0.17564	0.09613	0.22361	0.16906	0.049136	0.066456	0.12874	0.073963	0.079066	0.036246	-0.029558	0.018058	0.073796	0.20719	0.023393	0.080844	0.12655	-0.011154	0.15697	-0.84264	-0.026009	-0.6797	-0.92872	-0.03117	0.67249	0.22686	1.5927	0.065182
4	0.015	0.37777	1.4269	0.004323	0.26445	1.4393	-0.20438	0.26582	1.1915	-0.24151	0.22181	1.0971	-0.24294	0.27033	0.97134	-0.2899	0.30711	0.83197	-0.2623	0.23827	0.83495	-0.30375	0.28614	0.77293	-0.32243	0.30589	1.4693	0.22248	0.36857	1.2307	0.28871	0.39131	1.1206	0.29972	0.50258	1.0372	0.28342	0.58311	0.95084	0.199	0.55406	0.90788	0.26119	0.61877	0.911	0.24211	0.39815	0.94564	-0.080485	0.38997	0.94554	0.16228	0.15453	0.99054	0.059166	0.15146	0.99404	-0.0092957	0.40093	0.65746	-0.18528	0.47924	0.47936	-0.1381	0.48931	0.47301	-0.017064	0.54146	0.30218	-0.16016	0.49011	0.27563	-0.15982	0.53907	0.24672	-0.15945	0.5895	0.080476	-0.1271	0.6325	0.11502	-0.042337	0.55659	0.013212	-0.052536	0.76768	0.10608	-0.11601	0.68706	0.028716	-0.16207	0.29945	0.68869	0.21346	0.2381	0.68401	0.21828	0.26825	0.64665	0.21054	0.20074	0.45625	0.16208	0.13702	0.26229	0.17196	0.084742	0.27742	0.17544	0.098675	0.22396	0.16872	0.049628	0.067226	0.12889	0.074473	0.079546	0.036337	-0.029561	0.018674	0.073944	0.20726	0.023185	0.081071	0.12639	-0.01116	0.15703	-0.83776	-0.02602	-0.67968	-0.92371	-0.031134	0.67256	0.232	1.592	0.064418
5	0.02	0.38294	1.4264	0.0035378	0.27001	1.4388	-0.20529	0.27224	1.1908	-0.24213	0.22833	1.0962	-0.24377	0.27739	0.97054	-0.29016	0.31412	0.83124	-0.26203	0.24557	0.83419	-0.30424	0.29362	0.77189	-0.32206	0.31094	1.4688	0.22156	0.3725	1.2299	0.28797	0.39471	1.1196	0.2989	0.50547	1.0356	0.28294	0.58549	0.94844	0.19876	0.55608	0.90582	0.26102	0.6208	0.90842	0.24199	0.40332	0.94534	-0.081173	0.39453	0.94464	0.16186	0.15936	0.99004	0.058354	0.15655	0.99364	-0.0098482	0.40893	0.6583	-0.18574	0.48573	0.47908	-0.13816	0.49604	0.47275	-0.017407	0.5456	0.30074	-0.15966	0.494	0.27498	-0.15936	0.54234	0.24528	-0.15893	0.59092	0.079176	-0.12604	0.63451	0.11271	-0.041279	0.55758	0.012885	-0.051656	0.7697	0.10243	-0.11547	0.68792	0.02651	-0.16166	0.30433	0.68805	0.21276	0.24305	0.68332	0.21781	0.27314	0.64596	0.20986	0.20506	0.45569	0.16161	0.13898	0.26228	0.17206	0.0874	0.27794	0.17531	0.10081	0.22442	0.16847	0.050193	0.068086	0.12897	0.075106	0.080076	0.036406	-0.029392	0.019665	0.074049	0.20734	0.022902	0.08131	0.12636	-0.011105	0.15707	-0.83295	-0.026036	-0.67968	-0.91883	-0.031102	0.67256	0.23712	1.5913	0.063661
6	0.025	0.38816	1.426	0.0027537	0.27552	1.4382	-0.20624	0.27871	1.19	-0.24278	0.23482	1.0953	-0.24459	0.28448	0.96974	-0.29045	0.32117	0.83056	-0.26184	0.25299	0.8333	-0.30454	0.30118	0.77092	-0.32169	0.31585	1.4684	0.22062	0.37637	1.2292	0.28719	0.3981	1.1189	0.29814	0.50829	1.0339	0.28249	0.58778	0.94604	0.19847	0.55792	0.90371	0.26087	0.62268	0.90582	0.24193	0.4085	0.94514	-0.081874	0.40054	0.94454	0.16114	0.16472	0.98954	0.05798	0.16175	0.99334	-0.010479	0.41697	0.65915	-0.18625	0.49228	0.47875	-0.1382	0.50257	0.47255	-0.017738	0.54967	0.2994	-0.15914	0.49775	0.27443	-0.15881	0.54561	0.24394	-0.15831	0.59263	0.077766	-0.12499	0.63669	0.11087	-0.040333	0.55881	0.013003	-0.050644	0.7718	0.099086	-0.11477	0.68887	0.024642	-0.16115	0.30919	0.68745	0.21203	0.24802	0.68274	0.21722	0.27798	0.64536	0.20928	0.20955	0.45515	0.1611	0.14154	0.26233	0.17178	0.090185	0.27847	0.17497	0.10296	0.22498	0.16813	0.0508	0.068966	0.12902	0.07569	0.080546	0.036194	-0.029111	0.021037	0.074202	0.20764	0.022657	0.081352	0.12635	-0.011058	0.15712	-0.82812	-0.026026	-0.67971	-0.91409	-0.031076	0.67259	0.24223	1.5906	0.062897
7	0.03	0.39338	1.4255	0.0019065	0.28102	1.4376	-0.20724	0.28516	1.1893	-0.24344	0.24131	1.0946	-0.24549	0.29157	0.96904	-0.29074	0.32821	0.82993	-0.26166	0.26057	0.83249	-0.30491	0.30879	0.77003	-0.32137	0.32086	1.468	0.2196	0.38032	1.2286	0.28637	0.4015	1.1181	0.2973	0.51099	1.0322	0.28204	0.5899	0.94354	0.19831	0.55963	0.90164	0.26078	0.62442	0.90319	0.24187	0.41375	0.94494	-0.082615	0.40584	0.94399	0.16044	0.16964	0.98914	0.057012	0.16695	0.99294	-0.011038	0.42506	0.65997	-0.18682	0.49886	0.47844	-0.13827	0.5089	0.47246	-0.018093	0.55378	0.29812	-0.15862	0.50146	0.27387	-0.15819	0.54899	0.24269	-0.15764	0.59461	0.076656	-0.12401	0.63902	0.1095	-0.039333	0.56011	0.013135	-0.049764	0.77399	0.095986	-0.11384	0.68998	0.023141	-0.16059	0.31415	0.68692	0.21131	0.25293	0.68233	0.21645	0.28295	0.64485	0.20855	0.21399	0.45463	0.16061	0.14474	0.26253	0.17107	0.092899	0.27908	0.17475	0.10517	0.22559	0.16773	0.051537	0.069956	0.1291	0.076448	0.081216	0.036077	-0.028769	0.022538	0.074259	0.20793	0.022349	0.081534	0.12638	-0.010932	0.15718	-0.82327	-0.026016	-0.67967	-0.90911	-0.031085	0.67256	0.24743	1.59	0.062108
